<svg width="14" height="13" viewBox="0 0 14 13" fill="none" xmlns="http://www.w3.org/2000/svg">
<path d="M10.0335 4.63668L3.30324 11.3858C3.15158 11.5375 2.97135 11.6133 2.76255 11.6133C2.55426 11.6133 2.37428 11.5375 2.22262 11.3858C2.07095 11.2342 1.99512 11.054 1.99512 10.8452C1.99512 10.6369 2.07095 10.4569 2.22262 10.3052L8.97178 3.57502H3.20845C2.99359 3.57502 2.81336 3.50247 2.66776 3.35737C2.52266 3.21177 2.45012 3.03154 2.45012 2.81668C2.45012 2.60182 2.52266 2.42159 2.66776 2.27599C2.81336 2.1309 2.99359 2.05835 3.20845 2.05835H10.7918C11.0066 2.05835 11.1866 2.1309 11.3317 2.27599C11.4773 2.42159 11.5501 2.60182 11.5501 2.81668V10.4C11.5501 10.6149 11.4773 10.7949 11.3317 10.9399C11.1866 11.0855 11.0066 11.1583 10.7918 11.1583C10.5769 11.1583 10.3969 11.0855 10.2519 10.9399C10.1063 10.7949 10.0335 10.6149 10.0335 10.4V4.63668Z" fill="black"/>
</svg>
